Dactyl Round.sfdir
StartChar: "
Encoding: 34 34 0
Width: 283
InSpiro: 1
        Flags: H
        LayerCount: 2
        Back
        SplineSet
30 634 m 0
34 634 l 0
34 280 l 0
30 280 l 0
30 634 l 0
Z
179 634 m 0
184 634 l 0
184 280 l 0
179 280 l 0
179 634 l 0
Z
Spiro
30 634 v
34 634 v
34 280 v
30 280 v
179 634 v
184 634 v
184 280 v
179 280 v
0 0 z
EndSpiro
EndSplineSet
        Fore
        SplineSet
-1 660 m 0
61 660 l 0
61 250 l 0
-1 250 l 0
-1 660 l 0
Z
148 660 m 0
211 660 l 0
211 250 l 0
148 250 l 0
148 660 l 0
Z
Spiro
-1 660 v
61 660 v
61 250 v
-1 250 v
148 660 v
211 660 v
211 250 v
148 250 v
0 0 z
EndSpiro
EndSplineSet
        EndChar
StartChar: $
Encoding: 36 36 0
Width: 583
InSpiro: 1
        Flags: H
        LayerCount: 2
        Back
        SplineSet
329 330 m 0
329 334 l 0
371 350 406 385 423 428 c 0
440 471 437 520 417 561 c 0
397 602 359 634 315 647 c 0
271 660 222 653 183 630 c 0
152 611 129 583 106 556 c 0
84 528 61 500 33 480 c 0
6 461 -24 449 -52 432 c 0
-66 424 -79 414 -91 402 c 0
-102 391 -110 376 -115 361 c 0
-119 344 -118 327 -112 311 c 0
-107 296 -97 282 -84 271 c 0
-59 248 -25 239 7 241 c 0
41 243 73 255 101 271 c 0
130 288 156 309 182 330 c 0
208 351 234 372 264 389 c 0
293 406 325 419 358 421 c 0
392 423 427 413 452 391 c 0
465 380 475 366 481 350 c 0
486 334 487 317 484 301 c 0
480 284 471 270 459 258 c 0
448 245 434 236 420 227 c 0
391 210 360 199 333 180 c 0
304 159 281 131 259 103 c 0
236 76 213 48 183 30 c 0
142 4 91 -2 46 10 c 0
0 23 -38 56 -59 99 c 0
-80 142 -82 193 -64 237 c 0
-47 281 -10 317 34 334 c 0
34 330 l 0
-8 313 -44 278 -61 235 c 0
-78 192 -76 142 -55 101 c 0
-35 60 2 28 47 15 c 0
91 2 140 8 180 33 c 0
210 51 233 79 256 106 c 0
278 134 301 162 330 183 c 0
356 201 387 213 416 230 c 0
430 238 443 247 454 259 c 0
466 271 474 286 479 302 c 0
483 318 482 335 476 351 c 0
471 366 461 380 448 391 c 0
424 414 389 423 356 421 c 0
323 419 291 407 262 391 c 0
233 374 207 353 181 332 c 0
155 311 129 290 100 273 c 0
71 256 38 244 5 242 c 0
-28 240 -63 249 -88 271 c 0
-101 282 -111 296 -116 312 c 0
-122 328 -123 345 -120 362 c 0
-116 378 -107 392 -95 404 c 0
-84 416 -71 426 -56 435 c 0
-28 452 3 463 30 483 c 0
58 503 81 531 103 559 c 0
126 586 149 614 180 633 c 0
220 657 270 664 316 651 c 0
361 638 400 605 421 563 c 0
442 521 444 470 427 426 c 0
409 382 373 346 329 330 c 0
Z
179 636 m 0
184 636 l 0
184 28 l 0
179 28 l 0
179 636 l 0
Z
Spiro
329 330 v
329 334 v
183 630 c
33 480 c
-115 361 c
484 301 c
333 180 c
183 30 c
34 334 v
34 330 v
180 33 c
330 183 c
479 302 c
-120 362 c
30 483 c
180 633 c
179 636 v
184 636 v
184 28 v
179 28 v
0 0 z
EndSpiro
EndSplineSet
        Fore
        SplineSet
298 300 m 0
298 360 l 0
332 371 361 397 376 430 c 0
391 464 392 503 378 536 c 0
364 570 335 597 301 610 c 0
267 622 228 620 196 604 c 0
164 588 140 560 119 532 c 0
97 504 76 475 48 455 c 0
24 437 -3 427 -28 413 c 0
-41 405 -53 397 -64 387 c 0
-75 377 -83 365 -89 352 c 0
-94 336 -95 318 -91 302 c 0
-87 286 -78 271 -67 259 c 0
-44 235 -9 223 23 223 c 0
56 224 89 235 118 251 c 0
148 266 174 287 200 308 c 0
226 330 252 351 281 369 c 0
310 386 341 400 375 404 c 0
408 407 444 400 471 380 c 0
484 370 495 356 502 341 c 0
509 326 512 308 510 292 c 0
507 273 498 256 486 242 c 0
474 228 460 217 444 208 c 0
413 188 377 176 348 155 c 0
318 134 295 106 272 79 c 0
249 51 225 23 196 4 c 0
147 -28 83 -37 27 -19 c 0
-28 -2 -74 42 -95 97 c 0
-116 151 -110 215 -80 266 c 0
-50 316 2 352 61 360 c 0
61 300 l 0
26 288 -3 262 -18 228 c 0
-33 195 -34 156 -20 122 c 0
-6 88 22 61 56 48 c 0
90 35 130 38 163 55 c 0
194 71 217 98 239 126 c 0
261 154 282 183 311 204 c 0
334 221 362 231 388 245 c 0
401 252 413 261 424 271 c 0
434 281 443 293 449 307 c 0
454 322 455 340 451 356 c 0
447 372 438 387 427 399 c 0
404 423 370 435 336 435 c 0
303 435 270 424 241 408 c 0
211 392 185 371 159 350 c 0
133 329 107 307 78 289 c 0
50 272 18 258 -15 254 c 0
-48 251 -84 258 -111 278 c 0
-124 288 -135 302 -142 317 c 0
-149 332 -152 350 -150 367 c 0
-147 385 -138 401 -126 415 c 0
-115 429 -100 441 -84 450 c 0
-53 469 -18 482 11 504 c 0
40 524 63 552 86 580 c 0
109 607 133 635 163 655 c 0
211 687 274 696 330 678 c 0
386 660 432 616 453 562 c 0
473 507 468 443 438 393 c 0
409 343 355 308 298 300 c 0
Z
148 690 m 0
211 690 l 0
211 -30 l 0
148 -30 l 0
148 690 l 0
Z
Spiro
298 300 v
298 360 v
196 604 c
48 455 c
-89 352 c
510 292 c
348 155 c
196 4 c
61 360 v
61 300 v
163 55 c
311 204 c
449 307 c
-150 367 c
11 504 c
163 655 c
148 690 v
211 690 v
211 -30 v
148 -30 v
0 0 z
EndSpiro
EndSplineSet
        EndChar
StartChar: &
Encoding: 38 38 0
Width: 433
InSpiro: 1
        Flags: H
        LayerCount: 2
        Back
        SplineSet
Spiro
0 0 z
EndSpiro
EndSplineSet
        Fore
        SplineSet
Spiro
0 0 z
EndSpiro
EndSplineSet
        EndChar
StartChar: '
Encoding: 39 39 0
Width: 133
InSpiro: 1
        Flags: H
        LayerCount: 2
        Back
        SplineSet
30 634 m 0
34 634 l 0
34 280 l 0
30 280 l 0
30 634 l 0
Z
Spiro
30 634 v
34 634 v
34 280 v
30 280 v
0 0 z
EndSpiro
EndSplineSet
        Fore
        SplineSet
-1 660 m 0
61 660 l 0
61 250 l 0
-1 250 l 0
-1 660 l 0
Z
Spiro
-1 660 v
61 660 v
61 250 v
-1 250 v
0 0 z
EndSpiro
EndSplineSet
        EndChar
StartChar: (
Encoding: 40 40 0
Width: 483
InSpiro: 1
        Flags: H
        LayerCount: 2
        Back
        SplineSet
384 636 m 0
384 632 l 0
297 645 206 619 140 562 c 0
73 505 33 419 34 332 c 0
34 244 73 158 140 101 c 0
206 44 297 18 384 32 c 0
384 28 l 0
296 14 204 41 137 98 c 0
70 156 30 243 30 332 c 0
30 420 70 507 137 565 c 0
204 622 296 649 384 636 c 0
Z
Spiro
384 636 v
384 632 v
34 332 c
384 32 v
384 28 v
30 332 c
0 0 z
EndSpiro
EndSplineSet
        Fore
        SplineSet
411 690 m 0
411 630 l 0
324 643 233 617 167 560 c 0
100 503 60 417 61 330 c 0
61 242 100 156 167 99 c 0
233 42 324 16 411 30 c 0
411 -30 l 0
308 -43 200 -11 123 56 c 0
45 124 -1 226 -1 330 c 0
0 433 45 535 123 603 c 0
200 671 308 703 411 690 c 0
Z
Spiro
411 690 v
411 630 v
61 330 c
411 30 v
411 -30 v
-1 330 c
0 0 z
EndSpiro
EndSplineSet
        EndChar
StartChar: )
Encoding: 41 41 0
Width: 586
InSpiro: 1
        Flags: H
        LayerCount: 2
        Back
        SplineSet
73 632 m 0
73 636 l 0
160 649 253 623 320 565 c 0
387 508 428 420 428 332 c 0
428 243 387 155 320 98 c 0
253 40 160 14 73 28 c 0
73 32 l 0
159 18 250 44 316 101 c 0
383 158 423 244 423 332 c 0
422 419 383 505 316 562 c 0
250 619 159 645 73 632 c 0
Z
Spiro
73 632 v
73 636 v
428 332 c
73 28 v
73 32 v
423 332 c
0 0 z
EndSpiro
EndSplineSet
        Fore
        SplineSet
101 630 m 0
101 690 l 0
203 704 311 671 389 603 c 0
467 535 514 433 514 330 c 0
514 226 467 124 389 56 c 0
311 -11 203 -44 101 -30 c 0
101 30 l 0
187 16 278 42 344 99 c 0
411 156 451 242 451 330 c 0
450 417 411 503 344 560 c 0
278 617 187 643 101 630 c 0
Z
Spiro
101 630 v
101 690 v
514 330 c
101 -30 v
101 30 v
451 330 c
0 0 z
EndSpiro
EndSplineSet
        EndChar
StartChar: /
Encoding: 47 47 0
Width: 536
InSpiro: 1
        Flags: H
        LayerCount: 2
        Back
        SplineSet
373 636 m 0
378 636 l 0
78 28 l 0
73 28 l 0
373 636 l 0
Z
Spiro
373 636 v
378 636 v
78 28 v
73 28 v
0 0 z
EndSpiro
EndSplineSet
        Fore
        SplineSet
401 690 m 0
464 690 l 0
164 -30 l 0
101 -30 l 0
401 690 l 0
Z
Spiro
401 690 v
464 690 v
164 -30 v
101 -30 v
0 0 z
EndSpiro
EndSplineSet
        EndChar
StartChar: 0
Encoding: 48 48 0
Width: 433
InSpiro: 1
        Flags: H
        LayerCount: 2
        Back
        SplineSet
34 332 m 0
34 269 29 206 49 147 c 0
58 117 74 89 97 68 c 0
120 47 150 33 182 34 c 0
213 34 243 47 265 68 c 0
288 89 304 117 314 147 c 0
333 206 328 269 329 332 c 0
329 394 333 457 314 516 c 0
304 546 288 574 265 595 c 0
243 616 213 629 182 630 c 0
150 630 120 616 97 595 c 0
74 574 58 546 49 517 c 0
29 457 34 394 34 332 c 0
Z
181 634 m 0
212 634 243 620 267 599 c 0
290 578 307 549 317 519 c 0
338 459 334 394 334 331 c 0
333 267 337 203 317 143 c 0
306 113 290 85 266 64 c 0
243 43 212 29 181 30 c 0
149 30 119 44 95 65 c 0
72 86 56 114 46 144 c 0
26 203 30 268 30 331 c 0
29 394 25 459 45 518 c 0
55 548 72 577 95 598 c 0
118 619 149 633 181 634 c 0
Z
329 634 m 0
334 634 l 0
34 30 l 0
30 30 l 0
329 634 l 0
Z
Spiro
34 332 c
182 34 c
329 332 c
182 630 c
181 634 c
334 331 c
181 30 c
30 331 c
329 634 v
334 634 v
34 30 v
30 30 v
0 0 z
EndSpiro
EndSplineSet
        Fore
        SplineSet
61 330 m 0
61 274 53 218 67 164 c 0
74 138 86 112 106 92 c 0
125 73 152 59 180 60 c 0
207 60 234 73 253 93 c 0
272 112 285 138 292 165 c 0
305 218 297 274 298 330 c 0
298 385 305 441 292 494 c 0
285 521 272 547 253 566 c 0
234 586 207 599 180 600 c 0
152 600 125 587 106 567 c 0
86 547 74 521 67 495 c 0
53 441 61 385 61 330 c 0
Z
179 660 m 0
214 660 248 645 275 623 c 0
302 600 322 570 335 537 c 0
361 472 361 399 361 329 c 0
360 258 361 186 335 121 c 0
322 89 302 58 275 36 c 0
248 14 214 0 179 0 c 0
144 0 109 14 83 37 c 0
56 59 37 89 24 122 c 0
-1 187 0 259 -1 329 c 0
-1 399 -2 471 23 536 c 0
36 569 56 599 82 622 c 0
109 645 143 659 179 660 c 0
Z
298 660 m 0
361 660 l 0
61 0 l 0
-1 0 l 0
298 660 l 0
Z
Spiro
61 330 c
180 60 c
298 330 c
180 600 c
179 660 c
361 329 c
179 0 c
-1 329 c
298 660 v
361 660 v
61 0 v
-1 0 v
0 0 z
EndSpiro
EndSplineSet
        EndChar
StartChar: 1
Encoding: 49 49 0
Width: 193
InSpiro: 1
        Flags: H
        LayerCount: 2
        Back
        SplineSet
34 510 m 0
30 510 l 0
33 634 l 0
38 634 l 0
38 30 l 0
33 30 l 0
33 511 l 0
34 510 l 0
Z
Spiro
34 510 v
30 510 v
33 634 v
38 634 v
38 30 v
33 30 v
33 511 v
0 0 z
EndSpiro
EndSplineSet
        Fore
        SplineSet
61 480 m 0
-1 480 l 0
58 660 l 0
121 660 l 0
121 0 l 0
58 0 l 0
59 502 l 0
61 480 l 0
Z
Spiro
61 480 v
-1 480 v
58 660 v
121 660 v
121 0 v
58 0 v
59 502 v
0 0 z
EndSpiro
EndSplineSet
        EndChar
StartChar: 2
Encoding: 50 50 0
Width: 483
InSpiro: 1
        Flags: H
        LayerCount: 2
        Back
        SplineSet
34 334 m 0
34 330 l 0
-25 371 -64 440 -68 513 c 0
-72 585 -40 658 13 706 c 0
68 753 145 773 216 759 c 0
287 745 350 696 383 632 c 0
410 576 415 511 404 450 c 0
392 389 365 332 333 280 c 0
313 249 292 220 267 195 c 0
241 170 212 149 183 130 c 0
38 33 l 0
334 34 l 0
334 30 l 0
30 30 l 0
30 34 l 0
180 133 l 0
209 152 239 173 264 198 c 0
289 223 311 252 330 283 c 0
362 334 388 391 400 451 c 0
411 511 407 576 380 631 c 0
348 695 286 743 216 757 c 0
145 772 69 752 15 705 c 0
-38 659 -69 586 -66 515 c 0
-62 443 -24 374 34 334 c 0
Z
Spiro
34 334 v
34 330 v
383 632 c
333 280 c
183 130 [
38 33 v
334 34 v
334 30 v
30 30 v
30 34 v
180 133 ]
330 283 c
380 631 c
0 0 z
EndSpiro
EndSplineSet
        Fore
        SplineSet
61 360 m 0
61 300 l 0
-10 337 -61 409 -73 488 c 0
-85 568 -57 652 0 709 c 0
56 765 141 792 220 779 c 0
299 767 371 714 408 643 c 0
438 583 444 513 432 447 c 0
420 382 391 320 356 264 c 0
335 231 313 201 286 174 c 0
259 148 228 126 197 105 c 0
130 60 l 0
361 60 l 0
361 0 l 0
-1 0 l 0
-1 60 l 0
162 154 l 0
191 170 220 189 243 213 c 0
267 237 286 265 303 295 c 0
331 343 356 395 367 450 c 0
379 505 376 565 351 616 c 0
323 670 270 711 210 722 c 0
150 734 85 716 39 676 c 0
-5 635 -31 573 -27 512 c 0
-23 452 10 393 61 360 c 0
Z
Spiro
61 360 v
61 300 v
408 643 c
356 264 c
197 105 [
130 60 v
361 60 v
361 0 v
-1 0 v
-1 60 v
162 154 ]
303 295 c
351 616 c
0 0 z
EndSpiro
EndSplineSet
        EndChar
StartChar: 3
Encoding: 51 51 0
Width: 483
InSpiro: 1
        Flags: H
        LayerCount: 2
        Back
        SplineSet
34 334 m 0
34 332 l 0
34 330 l 0
-11 338 -54 360 -88 390 c 0
-122 421 -148 462 -161 506 c 0
-175 550 -176 597 -165 642 c 0
-154 687 -131 729 -98 761 c 0
-66 794 -24 818 19 829 c 0
64 840 112 839 156 826 c 0
200 813 241 787 272 753 c 0
303 719 324 677 334 632 c 0
343 582 339 531 334 481 c 0
331 460 329 440 324 420 c 0
318 401 309 382 295 367 c 0
281 352 263 341 243 336 c 0
224 330 203 329 183 330 c 0
179 330 l 0
179 334 l 0
183 334 l 0
202 334 223 334 242 340 c 0
261 345 278 356 292 370 c 0
305 385 314 403 319 423 c 0
325 442 327 462 329 482 c 0
333 531 338 582 329 631 c 0
320 675 298 717 268 751 c 0
237 785 197 810 154 823 c 0
110 836 63 837 19 826 c 0
-24 815 -65 792 -97 759 c 0
-129 727 -152 686 -163 642 c 0
-174 597 -173 550 -159 507 c 0
-146 463 -120 424 -86 393 c 0
-52 363 -10 342 34 334 c 0
Z
179 330 m 0
179 334 l 0
183 334 l 0
203 334 223 333 243 327 c 0
262 321 280 310 293 294 c 0
306 279 314 260 320 241 c 0
326 221 329 201 334 182 c 0
346 130 369 82 384 32 c 0
407 -53 403 -146 371 -229 c 0
339 -312 280 -384 205 -431 c 0
130 -479 40 -501 -48 -495 c 0
-136 -488 -222 -453 -289 -395 c 0
-356 -337 -404 -257 -424 -170 c 0
-443 -84 -434 8 -398 89 c 0
-362 170 -299 239 -222 283 c 0
-145 326 -54 344 34 334 c 0
34 332 l 0
34 330 l 0
-53 341 -145 324 -222 281 c 0
-300 238 -363 169 -399 88 c 0
-435 8 -445 -84 -426 -171 c 0
-407 -257 -359 -337 -292 -395 c 0
-225 -453 -139 -489 -51 -496 c 0
36 -502 127 -479 201 -432 c 0
276 -384 335 -312 367 -230 c 0
398 -147 403 -54 379 31 c 0
364 81 340 129 329 181 c 0
324 200 321 219 316 238 c 0
311 257 302 276 290 291 c 0
277 306 260 317 241 323 c 0
222 329 202 329 183 330 c 0
179 330 l 0
Z
Spiro
34 334 v
34 332 c
34 330 v
334 632 c
334 481 c
183 330 [
179 330 v
179 334 v
183 334 ]
329 482 c
329 631 c
179 330 v
179 334 v
183 334 ]
334 182 c
384 32 c
34 334 v
34 332 c
34 330 v
379 31 c
329 181 c
183 330 [
0 0 z
EndSpiro
EndSplineSet
        Fore
        SplineSet
61 360 m 0
61 330 l 0
61 300 l 0
9 304 -40 323 -81 354 c 0
-122 385 -155 427 -174 475 c 0
-192 523 -198 576 -189 627 c 0
-180 678 -156 726 -122 764 c 0
-88 803 -43 831 6 846 c 0
55 861 108 862 158 848 c 0
208 835 254 807 289 770 c 0
324 732 349 685 360 635 c 0
370 583 366 529 361 477 c 0
358 453 355 429 348 405 c 0
341 382 330 361 313 343 c 0
297 326 275 313 252 307 c 0
229 300 205 299 181 300 c 0
148 300 l 0
148 360 l 0
181 360 l 0
197 360 213 360 229 365 c 0
244 369 259 378 269 390 c 0
280 402 287 418 291 433 c 0
295 449 296 465 298 482 c 0
302 529 308 577 299 624 c 0
291 664 271 702 243 732 c 0
216 762 179 784 140 795 c 0
100 806 58 806 18 794 c 0
-20 783 -56 760 -84 730 c 0
-111 699 -130 661 -137 621 c 0
-144 580 -140 538 -125 500 c 0
-110 462 -85 428 -52 403 c 0
-19 378 20 363 61 360 c 0
Z
148 300 m 0
148 360 l 0
181 360 l 0
204 360 228 359 250 352 c 0
273 345 293 332 309 315 c 0
324 297 335 276 342 254 c 0
349 231 353 208 360 186 c 0
373 135 395 88 410 38 c 0
436 -55 430 -158 395 -248 c 0
359 -339 293 -418 210 -468 c 0
127 -519 27 -542 -69 -533 c 0
-166 -523 -259 -481 -331 -415 c 0
-403 -349 -452 -259 -469 -163 c 0
-487 -67 -472 33 -428 120 c 0
-384 207 -311 279 -223 322 c 0
-136 365 -34 378 61 360 c 0
61 330 l 0
61 300 l 0
-25 322 -119 315 -201 280 c 0
-283 246 -353 183 -397 105 c 0
-441 27 -458 -64 -446 -153 c 0
-433 -241 -390 -325 -326 -387 c 0
-261 -449 -176 -490 -88 -500 c 0
0 -510 92 -490 169 -443 c 0
245 -397 305 -325 338 -242 c 0
370 -158 374 -64 349 21 c 0
333 72 308 120 299 173 c 0
296 189 294 205 290 221 c 0
286 238 280 253 270 266 c 0
260 279 245 289 230 294 c 0
214 299 197 299 181 300 c 0
148 300 l 0
Z
Spiro
61 360 v
61 330 c
61 300 v
360 635 c
361 477 c
181 300 [
148 300 v
148 360 v
181 360 ]
298 482 c
299 624 c
148 300 v
148 360 v
181 360 ]
360 186 c
410 38 c
61 360 v
61 330 c
61 300 v
349 21 c
299 173 c
181 300 [
0 0 z
EndSpiro
EndSplineSet
        EndChar
StartChar: 6
Encoding: 54 54 0
Width: 433
InSpiro: 1
        Flags: H
        LayerCount: 2
        Back
        SplineSet
329 330 m 0
329 334 l 0
364 355 391 389 403 429 c 0
415 469 411 513 393 550 c 0
374 587 342 617 303 631 c 0
264 646 220 645 182 630 c 0
154 618 130 600 111 578 c 0
92 556 77 530 67 503 c 0
45 448 39 389 34 331 c 0
28 268 24 203 45 144 c 0
55 115 72 87 96 66 c 0
120 46 150 33 182 33 c 0
204 32 227 39 247 51 c 0
267 63 283 80 296 99 c 0
321 137 330 185 329 231 c 0
327 276 316 321 291 358 c 0
278 377 262 393 243 406 c 0
224 418 203 427 181 430 c 0
148 433 115 425 88 407 c 0
61 389 42 361 34 330 c 0
30 330 l 0
38 362 59 391 86 409 c 0
114 428 148 437 182 433 c 0
227 427 268 399 294 361 c 0
320 323 332 277 334 232 c 0
335 184 326 135 299 96 c 0
286 76 269 59 248 48 c 0
228 36 204 29 181 30 c 0
149 30 118 44 94 65 c 0
70 85 53 113 42 143 c 0
20 203 24 268 30 332 c 0
35 390 41 450 64 505 c 0
75 533 90 559 109 581 c 0
129 603 153 621 181 633 c 0
220 648 265 649 304 634 c 0
344 619 377 588 396 550 c 0
415 512 418 467 406 426 c 0
393 386 365 351 329 330 c 0
Z
Spiro
329 330 v
329 334 v
182 630 c
34 331 c
182 33 c
329 231 c
181 430 c
34 330 v
30 330 v
182 433 c
334 232 c
181 30 c
30 332 c
181 633 c
0 0 z
EndSpiro
EndSplineSet
        Fore
        SplineSet
298 300 m 0
298 360 l 0
327 375 350 402 361 433 c 0
371 465 370 500 357 530 c 0
343 561 318 585 288 599 c 0
257 612 222 613 191 602 c 0
165 592 143 576 126 555 c 0
108 535 96 510 87 485 c 0
69 434 66 380 61 327 c 0
55 271 47 214 62 160 c 0
70 134 84 108 104 89 c 0
124 70 152 58 180 59 c 0
199 59 217 65 233 76 c 0
249 86 263 101 272 117 c 0
292 150 298 189 298 228 c 0
297 266 289 305 268 338 c 0
258 354 245 369 229 379 c 0
213 390 195 398 176 400 c 0
147 402 118 393 96 374 c 0
75 356 62 328 61 300 c 0
-1 300 l 0
0 345 21 390 56 419 c 0
90 449 137 464 183 459 c 0
235 453 282 421 313 378 c 0
344 336 359 283 361 231 c 0
363 175 350 119 319 74 c 0
303 51 282 32 258 19 c 0
234 6 206 0 179 0 c 0
143 1 109 15 82 38 c 0
55 60 34 90 21 123 c 0
-5 188 -5 261 -1 332 c 0
3 396 11 461 37 520 c 0
50 550 67 578 89 602 c 0
111 625 137 645 168 657 c 0
215 675 269 673 315 652 c 0
361 632 398 592 415 544 c 0
432 497 429 443 408 397 c 0
386 352 345 316 298 300 c 0
Z
Spiro
298 300 v
298 360 v
191 602 c
61 327 c
180 59 c
298 228 c
176 400 c
61 300 v
-1 300 v
183 459 c
361 231 c
179 0 c
-1 332 c
168 657 c
0 0 z
EndSpiro
EndSplineSet
        EndChar
StartChar: 7
Encoding: 55 55 0
Width: 433
InSpiro: 1
        Flags: H
        LayerCount: 2
        Back
        SplineSet
30 630 m 0
30 634 l 0
334 634 l 0
334 634 l 0
184 30 l 0
179 30 l 0
329 630 l 0
30 630 l 0
Z
Spiro
30 630 v
30 634 v
334 634 v
334 634 v
184 30 v
179 30 v
329 630 v
0 0 z
EndSpiro
EndSplineSet
        Fore
        SplineSet
-1 600 m 0
-1 660 l 0
361 660 l 0
361 660 l 0
211 0 l 0
148 0 l 0
290 600 l 0
-1 600 l 0
Z
Spiro
-1 600 v
-1 660 v
361 660 v
361 660 v
211 0 v
148 0 v
290 600 v
0 0 z
EndSpiro
EndSplineSet
        EndChar
StartChar: 8
Encoding: 56 56 0
Width: 483
InSpiro: 1
        Flags: H
        LayerCount: 2
        Back
        SplineSet
182 630 m 0
143 630 104 614 76 587 c 0
48 559 32 520 34 482 c 0
35 444 53 407 81 382 c 0
109 356 145 343 182 333 c 0
218 321 256 308 285 283 c 0
313 257 332 220 334 182 c 0
335 142 319 101 290 73 c 0
262 45 222 29 182 30 c 0
142 30 102 45 73 73 c 0
45 101 28 142 30 182 c 0
31 220 49 257 78 283 c 0
106 308 144 321 181 333 c 0
217 343 253 356 281 382 c 0
309 407 327 444 329 482 c 0
330 520 314 559 286 586 c 0
259 614 220 629 182 630 c 0
Z
334 481 m 0
332 442 313 405 285 379 c 0
256 354 218 341 182 330 c 0
145 319 109 306 80 280 c 0
52 255 35 218 34 181 c 0
32 142 48 103 76 76 c 0
104 49 143 33 182 34 c 0
220 34 259 49 286 76 c 0
314 103 330 142 329 181 c 0
327 218 310 255 282 280 c 0
253 306 217 319 181 330 c 0
144 341 106 354 78 379 c 0
49 405 31 442 30 481 c 0
28 521 44 561 73 589 c 0
101 617 141 633 182 634 c 0
222 634 262 618 290 589 c 0
319 561 335 521 334 481 c 0
Z
Spiro
182 630 c
34 482 c
182 333 a
382 273 h
334 182 c
182 30 c
30 182 c
181 333 a
381 393 h
329 482 c
334 481 c
182 330 a
-18 270 h
34 181 c
182 34 c
329 181 c
181 330 a
-19 390 h
30 481 c
182 634 c
0 0 z
EndSpiro
EndSplineSet
        Fore
        SplineSet
180 600 m 0
148 600 117 587 94 565 c 0
72 543 59 512 61 481 c 0
62 449 79 419 103 398 c 0
127 377 158 367 189 358 c 0
210 351 231 345 251 335 c 0
272 326 291 314 307 299 c 0
339 268 359 225 361 181 c 0
362 133 342 85 308 52 c 0
274 18 226 0 179 0 c 0
131 0 84 19 50 52 c 0
17 86 -2 133 -1 181 c 0
0 225 19 268 52 299 c 0
68 314 87 326 107 335 c 0
127 345 148 351 170 358 c 0
200 367 231 377 255 398 c 0
279 419 296 449 298 481 c 0
299 512 286 543 264 565 c 0
242 587 211 599 180 600 c 0
Z
361 478 m 0
359 433 339 390 307 359 c 0
291 344 272 332 251 323 c 0
231 313 210 307 189 301 c 0
158 291 127 281 103 260 c 0
78 240 62 209 61 178 c 0
59 146 72 115 95 93 c 0
117 71 148 59 180 60 c 0
211 60 242 72 264 94 c 0
286 115 299 146 298 178 c 0
296 209 280 240 255 260 c 0
231 281 200 291 170 301 c 0
148 307 127 313 107 323 c 0
87 332 68 344 52 359 c 0
19 390 0 433 -1 478 c 0
-2 525 17 573 50 606 c 0
84 640 131 659 179 660 c 0
226 660 274 641 308 607 c 0
342 573 362 525 361 478 c 0
Z
Spiro
180 600 c
61 481 c
189 358 a
389 298 h
361 181 c
179 0 c
-1 181 c
170 358 a
370 418 h
298 481 c
361 478 c
189 301 a
-11 241 h
61 178 c
180 60 c
298 178 c
170 301 a
-30 361 h
-1 478 c
179 660 c
0 0 z
EndSpiro
EndSplineSet
        EndChar
StartChar: 9
Encoding: 57 57 0
Width: 433
InSpiro: 1
        Flags: H
        LayerCount: 2
        Back
        SplineSet
184 30 m 0
179 30 l 0
256 113 309 219 329 332 c 0
337 381 340 432 329 481 c 0
320 517 304 552 279 580 c 0
253 608 218 627 181 630 c 0
141 632 102 616 75 588 c 0
47 560 33 521 34 482 c 0
34 443 50 404 77 377 c 0
105 349 143 333 182 333 c 0
220 332 259 348 287 376 c 0
314 404 329 443 329 482 c 0
334 482 l 0
334 441 317 402 289 373 c 0
261 345 221 329 181 330 c 0
141 330 102 347 75 375 c 0
47 402 31 441 30 481 c 0
28 521 44 562 72 590 c 0
100 619 141 635 182 633 c 0
220 630 256 610 282 582 c 0
308 555 325 519 334 482 c 0
345 432 342 380 334 331 c 0
313 219 261 113 184 30 c 0
Z
Spiro
184 30 v
179 30 v
329 332 c
329 481 c
181 630 c
34 482 c
182 333 c
329 482 v
334 482 v
181 330 c
30 481 c
182 633 c
334 482 c
334 331 c
0 0 z
EndSpiro
EndSplineSet
        Fore
        SplineSet
211 0 m 0
148 0 l 0
225 96 277 212 298 335 c 0
305 380 308 427 299 473 c 0
292 503 279 533 258 557 c 0
238 581 208 598 177 600 c 0
145 601 114 588 92 565 c 0
71 542 60 511 61 480 c 0
61 448 74 417 96 395 c 0
117 372 148 359 180 359 c 0
211 358 242 371 264 394 c 0
286 416 299 448 298 480 c 0
361 480 l 0
360 432 341 385 307 352 c 0
273 318 226 299 179 300 c 0
132 300 85 320 52 353 c 0
19 386 0 432 -1 479 c 0
-2 527 16 575 50 609 c 0
84 643 133 662 182 659 c 0
226 655 267 633 298 602 c 0
329 570 349 529 360 486 c 0
372 433 369 377 361 324 c 0
341 205 288 92 211 0 c 0
Z
Spiro
211 0 v
148 0 v
298 335 c
299 473 c
177 600 c
61 480 c
180 359 c
298 480 v
361 480 v
179 300 c
-1 479 c
182 659 c
360 486 c
361 324 c
0 0 z
EndSpiro
EndSplineSet
        EndChar
StartChar: A
Encoding: 65 65 0
Width: 433
InSpiro: 1
        Flags: H
        LayerCount: 2
        Back
        SplineSet
34 30 m 0
30 30 l 0
66 182 l 0
179 634 l 0
184 634 l 0
297 182 l 0
334 30 l 0
329 30 l 0
292 181 l 0
182 623 l 0
71 181 l 0
34 30 l 0
Z
66 180 m 0
66 184 l 0
297 184 l 0
297 180 l 0
66 180 l 0
Z
Spiro
34 30 v
30 30 v
66 182 v
179 634 v
184 634 v
297 182 v
334 30 v
329 30 v
292 181 v
182 623 v
71 181 v
66 180 v
66 184 v
297 184 v
297 180 v
0 0 z
EndSpiro
EndSplineSet
        Fore
        SplineSet
61 0 m 0
-1 0 l 0
36 187 l 0
148 660 l 0
211 660 l 0
323 187 l 0
361 0 l 0
298 0 l 0
262 172 l 0
180 506 l 0
97 172 l 0
61 0 l 0
Z
35 150 m 0
35 210 l 0
324 210 l 0
324 150 l 0
35 150 l 0
Z
Spiro
61 0 v
-1 0 v
36 187 v
148 660 v
211 660 v
323 187 v
361 0 v
298 0 v
262 172 v
180 506 v
97 172 v
35 150 v
35 210 v
324 210 v
324 150 v
0 0 z
EndSpiro
EndSplineSet
        EndChar
StartChar: D
Encoding: 68 68 0
Width: 433
InSpiro: 1
        Flags: H
        LayerCount: 2
        Back
        SplineSet
30 30 m 0
30 30 l 0
30 634 l 0
30 634 l 0
82 634 l 0
116 634 151 633 185 625 c 0
219 616 251 600 275 575 c 0
300 550 316 519 325 485 c 0
333 451 334 416 334 382 c 0
334 282 l 0
334 247 333 212 325 178 c 0
316 144 300 112 275 88 c 0
250 63 219 47 185 38 c 0
151 30 116 29 82 30 c 0
30 30 l 0
Z
82 34 m 0
116 33 150 34 183 42 c 0
216 51 247 67 271 91 c 0
295 115 312 147 320 180 c 0
328 213 329 247 329 282 c 0
329 382 l 0
329 416 328 450 320 483 c 0
312 516 295 548 271 572 c 0
247 596 216 612 183 621 c 0
150 629 116 630 82 630 c 0
34 630 l 0
34 34 l 0
82 34 l 0
Z
Spiro
30 30 v
30 30 v
30 634 v
30 634 v
82 634 ]
334 382 [
334 282 ]
82 30 [
82 34 ]
329 282 [
329 382 ]
82 630 [
34 630 v
34 34 v
0 0 z
EndSpiro
EndSplineSet
        Fore
        SplineSet
-1 0 m 0
-1 0 l 0
-1 660 l 0
-1 660 l 0
80 660 l 0
118 660 157 659 195 650 c 0
232 640 268 622 295 595 c 0
323 568 341 532 351 495 c 0
360 457 361 418 361 380 c 0
361 280 l 0
361 241 360 202 351 164 c 0
341 127 322 91 295 64 c 0
268 37 232 19 195 9 c 0
157 0 118 0 80 0 c 0
-1 0 l 0
Z
80 60 m 0
110 60 140 60 169 67 c 0
199 75 226 90 247 111 c 0
269 132 283 160 290 190 c 0
297 219 298 249 298 280 c 0
298 380 l 0
298 410 297 440 290 469 c 0
283 499 269 527 247 548 c 0
226 570 199 584 169 592 c 0
140 599 110 600 80 600 c 0
61 600 l 0
61 60 l 0
80 60 l 0
Z
Spiro
-1 0 v
-1 0 v
-1 660 v
-1 660 v
80 660 ]
361 380 [
361 280 ]
80 0 [
80 60 ]
298 280 [
298 380 ]
80 600 [
61 600 v
61 60 v
0 0 z
EndSpiro
EndSplineSet
        EndChar
StartChar: F
Encoding: 70 70 0
Width: 433
InSpiro: 1
        Flags: H
        LayerCount: 2
        Back
        SplineSet
334 634 m 0
334 630 l 0
34 630 l 0
34 30 l 0
30 30 l 0
30 634 l 0
30 634 l 0
334 634 l 0
Z
30 330 m 0
30 334 l 0
34 334 l 0
34 330 l 0
30 330 l 0
Z
Spiro
334 634 v
334 630 v
34 630 v
34 30 v
30 30 v
30 634 v
30 634 v
30 330 v
30 334 v
34 334 v
34 330 v
0 0 z
EndSpiro
EndSplineSet
        Fore
        SplineSet
361 660 m 0
361 600 l 0
61 600 l 0
61 0 l 0
-1 0 l 0
-1 660 l 0
-1 660 l 0
361 660 l 0
Z
-1 300 m 0
-1 360 l 0
61 360 l 0
61 300 l 0
-1 300 l 0
Z
Spiro
361 660 v
361 600 v
61 600 v
61 0 v
-1 0 v
-1 660 v
-1 660 v
-1 300 v
-1 360 v
61 360 v
61 300 v
0 0 z
EndSpiro
EndSplineSet
        EndChar
StartChar: G
Encoding: 71 71 0
Width: 433
InSpiro: 1
        Flags: H
        LayerCount: 2
        Back
        SplineSet
329 330 m 0
329 334 l 0
354 359 372 393 378 429 c 0
384 465 379 502 362 535 c 0
346 567 320 595 287 611 c 0
255 628 217 635 182 630 c 0
150 625 120 612 95 592 c 0
70 572 50 546 37 517 c 0
10 460 11 391 33 332 c 0
52 278 87 233 118 186 c 0
149 139 178 88 184 32 c 0
186 4 183 -23 188 -50 c 0
191 -63 196 -76 204 -88 c 0
211 -99 222 -108 235 -114 c 0
247 -119 262 -120 275 -117 c 0
288 -114 300 -106 309 -95 c 0
318 -85 323 -72 326 -58 c 0
328 -45 329 -31 329 -18 c 0
329 330 l 0
179 330 l 0
179 334 l 0
334 334 l 0
334 334 l 0
334 -18 l 0
334 -32 333 -46 331 -60 c 0
328 -74 322 -88 313 -99 c 0
304 -110 292 -118 278 -122 c 0
264 -126 249 -125 236 -119 c 0
223 -114 211 -104 203 -93 c 0
195 -81 189 -68 186 -54 c 0
180 -26 182 2 179 31 c 0
172 86 143 137 112 184 c 0
82 231 48 277 30 331 c 0
8 391 8 460 35 518 c 0
48 548 68 574 93 594 c 0
119 614 149 628 181 633 c 0
217 638 256 632 289 615 c 0
322 597 350 569 366 536 c 0
383 502 388 463 381 426 c 0
374 390 356 355 329 330 c 0
Z
Spiro
329 330 v
329 334 v
182 630 c
33 332 c
184 32 c
329 -18 [
329 330 v
179 330 v
179 334 v
334 334 v
334 334 v
334 -18 ]
179 31 c
30 331 c
181 633 c
0 0 z
EndSpiro
EndSplineSet
        Fore
        SplineSet
298 300 m 0
298 360 l 0
318 380 331 407 336 435 c 0
341 464 337 493 325 519 c 0
312 545 292 567 267 582 c 0
242 596 212 602 184 600 c 0
156 597 129 586 107 569 c 0
84 552 67 528 56 503 c 0
33 452 37 391 59 340 c 0
81 286 123 242 157 195 c 0
174 171 190 146 200 119 c 0
210 91 215 61 211 33 c 0
207 11 199 -8 198 -30 c 0
197 -41 198 -52 202 -62 c 0
206 -72 213 -81 222 -87 c 0
231 -92 242 -95 253 -94 c 0
264 -92 274 -87 281 -79 c 0
288 -71 293 -61 295 -51 c 0
297 -40 298 -29 298 -19 c 0
298 300 l 0
148 300 l 0
148 360 l 0
361 360 l 0
361 360 l 0
361 -20 l 0
361 -37 360 -55 357 -73 c 0
354 -90 347 -107 336 -121 c 0
325 -135 310 -146 294 -152 c 0
277 -158 258 -158 241 -152 c 0
224 -147 209 -137 197 -124 c 0
185 -110 176 -94 170 -78 c 0
158 -44 156 -8 148 26 c 0
134 79 106 127 77 174 c 0
48 220 18 267 0 319 c 0
-23 388 -24 466 7 532 c 0
22 565 45 595 74 617 c 0
103 639 138 654 175 659 c 0
218 664 264 654 301 630 c 0
338 607 367 570 381 529 c 0
395 487 395 441 380 399 c 0
365 358 335 322 298 300 c 0
Z
Spiro
298 300 v
298 360 v
184 600 c
59 340 c
211 33 c
298 -19 [
298 300 v
148 300 v
148 360 v
361 360 v
361 360 v
361 -20 ]
148 26 c
0 319 c
175 659 c
0 0 z
EndSpiro
EndSplineSet
        EndChar
StartChar: J
Encoding: 74 74 0
Width: 433
InSpiro: 1
        Flags: H
        LayerCount: 2
        Back
        SplineSet
30 630 m 0
30 634 l 0
334 634 l 0
334 634 l 0
334 332 l 0
333 271 332 208 309 152 c 0
297 124 281 97 259 76 c 0
237 55 211 38 182 30 c 0
143 18 101 21 64 37 c 0
27 53 -3 83 -20 119 c 0
-38 155 -42 197 -32 236 c 0
-22 275 1 310 34 334 c 0
34 330 l 0
1 307 -21 272 -31 234 c 0
-40 195 -36 154 -18 119 c 0
-1 83 29 54 65 39 c 0
101 23 143 21 181 33 c 0
209 41 235 58 256 79 c 0
277 101 294 127 305 154 c 0
327 210 329 272 329 332 c 0
329 630 l 0
30 630 l 0
Z
Spiro
30 630 v
30 634 v
334 634 v
334 634 v
334 332 ]
182 30 c
34 334 v
34 330 v
181 33 c
329 332 [
329 630 v
0 0 z
EndSpiro
EndSplineSet
        Fore
        SplineSet
-1 600 m 0
-1 660 l 0
361 660 l 0
361 660 l 0
361 330 l 0
360 262 358 193 332 132 c 0
319 101 300 73 275 50 c 0
251 27 221 9 189 1 c 0
143 -11 92 -5 50 16 c 0
8 38 -24 76 -40 121 c 0
-56 166 -55 216 -36 260 c 0
-17 304 17 340 61 360 c 0
61 300 l 0
34 282 13 255 4 225 c 0
-4 194 -2 160 10 131 c 0
23 102 47 78 76 65 c 0
105 51 139 49 170 58 c 0
195 65 219 80 237 100 c 0
256 120 269 144 278 169 c 0
297 220 297 275 298 330 c 0
298 600 l 0
-1 600 l 0
Z
Spiro
-1 600 v
-1 660 v
361 660 v
361 660 v
361 330 ]
189 1 c
61 360 v
61 300 v
170 58 c
298 330 [
298 600 v
0 0 z
EndSpiro
EndSplineSet
        EndChar
StartChar: K
Encoding: 75 75 0
Width: 433
InSpiro: 1
        Flags: H
        LayerCount: 2
        Back
        SplineSet
329 634 m 0
334 634 l 0
34 331 l 0
34 30 l 0
30 30 l 0
30 334 l 0
30 334 l 0
329 634 l 0
Z
30 634 m 0
34 634 l 0
34 332 l 0
334 30 l 0
329 30 l 0
30 330 l 0
30 330 l 0
30 634 l 0
Z
Spiro
329 634 v
334 634 v
34 331 v
34 30 v
30 30 v
30 334 v
30 334 v
30 634 v
34 634 v
34 332 v
334 30 v
329 30 v
30 330 v
30 330 v
0 0 z
EndSpiro
EndSplineSet
        Fore
        SplineSet
298 660 m 0
361 660 l 0
61 317 l 0
61 0 l 0
-1 0 l 0
-1 360 l 0
-1 360 l 0
298 660 l 0
Z
-1 660 m 0
61 660 l 0
61 342 l 0
361 0 l 0
298 0 l 0
-1 300 l 0
-1 300 l 0
-1 660 l 0
Z
Spiro
298 660 v
361 660 v
61 317 v
61 0 v
-1 0 v
-1 360 v
-1 360 v
-1 660 v
61 660 v
61 342 v
361 0 v
298 0 v
-1 300 v
-1 300 v
0 0 z
EndSpiro
EndSplineSet
        EndChar
StartChar: P
Encoding: 80 80 0
Width: 433
InSpiro: 1
        Flags: H
        LayerCount: 2
        Back
        SplineSet
34 30 m 0
30 30 l 0
30 634 l 0
30 634 l 0
182 634 l 0
202 634 223 633 243 628 c 0
263 622 282 612 296 597 c 0
311 582 321 563 326 543 c 0
332 523 334 502 334 482 c 0
334 461 332 440 326 420 c 0
321 400 311 381 296 366 c 0
282 351 263 341 243 335 c 0
223 330 202 329 182 330 c 0
30 330 l 0
30 334 l 0
182 334 l 0
202 334 222 334 241 339 c 0
261 345 279 355 293 369 c 0
307 384 316 402 322 422 c 0
327 441 329 461 329 482 c 0
329 502 327 522 322 541 c 0
316 561 307 579 293 594 c 0
279 608 261 618 241 624 c 0
222 629 202 630 182 630 c 0
34 630 l 0
34 30 l 0
Z
Spiro
34 30 v
30 30 v
30 634 v
30 634 v
182 634 ]
334 482 c
182 330 [
30 330 v
30 334 v
182 334 ]
329 482 c
182 630 [
34 630 v
0 0 z
EndSpiro
EndSplineSet
        Fore
        SplineSet
61 0 m 0
-1 0 l 0
-1 660 l 0
-1 660 l 0
180 660 l 0
204 660 229 659 253 653 c 0
277 646 299 634 316 616 c 0
333 599 345 576 352 553 c 0
359 529 361 504 361 480 c 0
361 455 359 430 352 406 c 0
345 383 333 360 316 343 c 0
299 325 277 313 253 306 c 0
229 300 204 299 180 300 c 0
-1 300 l 0
-1 360 l 0
180 360 l 0
196 360 212 360 228 364 c 0
244 369 258 377 269 389 c 0
281 401 288 415 292 431 c 0
297 447 298 463 298 480 c 0
298 496 297 512 292 528 c 0
288 544 280 558 269 570 c 0
258 582 244 590 228 595 c 0
212 599 196 600 180 600 c 0
61 600 l 0
61 0 l 0
Z
Spiro
61 0 v
-1 0 v
-1 660 v
-1 660 v
180 660 ]
361 480 c
180 300 [
-1 300 v
-1 360 v
180 360 ]
298 480 c
180 600 [
61 600 v
0 0 z
EndSpiro
EndSplineSet
        EndChar
StartChar: V
Encoding: 86 86 0
Width: 433
InSpiro: 1
        Flags: H
        LayerCount: 2
        Back
        SplineSet
30 634 m 0
34 634 l 0
182 40 l 0
329 634 l 0
334 634 l 0
184 30 l 0
179 30 l 0
30 634 l 0
Z
Spiro
30 634 v
34 634 v
182 40 v
329 634 v
334 634 v
184 30 v
179 30 v
0 0 z
EndSpiro
EndSplineSet
        Fore
        SplineSet
-1 660 m 0
61 660 l 0
180 153 l 0
298 660 l 0
361 660 l 0
211 0 l 0
148 0 l 0
-1 660 l 0
Z
Spiro
-1 660 v
61 660 v
180 153 v
298 660 v
361 660 v
211 0 v
148 0 v
0 0 z
EndSpiro
EndSplineSet
        EndChar
StartChar: X
Encoding: 88 88 0
Width: 433
InSpiro: 1
        Flags: H
        LayerCount: 2
        Back
        SplineSet
30 634 m 0
34 634 l 0
334 30 l 0
329 30 l 0
30 634 l 0
Z
329 634 m 0
334 634 l 0
34 30 l 0
30 30 l 0
329 634 l 0
Z
Spiro
30 634 v
34 634 v
334 30 v
329 30 v
329 634 v
334 634 v
34 30 v
30 30 v
0 0 z
EndSpiro
EndSplineSet
        Fore
        SplineSet
-1 660 m 0
61 660 l 0
361 0 l 0
298 0 l 0
-1 660 l 0
Z
298 660 m 0
361 660 l 0
61 0 l 0
-1 0 l 0
298 660 l 0
Z
Spiro
-1 660 v
61 660 v
361 0 v
298 0 v
298 660 v
361 660 v
61 0 v
-1 0 v
0 0 z
EndSpiro
EndSplineSet
        EndChar
StartChar: Y
Encoding: 89 89 0
Width: 433
InSpiro: 1
        Flags: H
        LayerCount: 2
        Back
        SplineSet
30 634 m 0
34 634 l 0
182 336 l 0
329 634 l 0
334 634 l 0
184 330 l 0
179 330 l 0
30 634 l 0
Z
179 334 m 0
184 334 l 0
184 30 l 0
179 30 l 0
179 334 l 0
Z
Spiro
30 634 v
34 634 v
182 336 v
329 634 v
334 634 v
184 330 v
179 330 v
179 334 v
184 334 v
184 30 v
179 30 v
0 0 z
EndSpiro
EndSplineSet
        Fore
        SplineSet
-1 660 m 0
61 660 l 0
180 397 l 0
298 660 l 0
361 660 l 0
211 300 l 0
148 300 l 0
-1 660 l 0
Z
148 360 m 0
211 360 l 0
211 0 l 0
148 0 l 0
148 360 l 0
Z
Spiro
-1 660 v
61 660 v
180 397 v
298 660 v
361 660 v
211 300 v
148 300 v
148 360 v
211 360 v
211 0 v
148 0 v
0 0 z
EndSpiro
EndSplineSet
        EndChar
StartChar: Z
Encoding: 90 90 0
Width: 433
InSpiro: 1
        Flags: H
        LayerCount: 2
        Back
        SplineSet
30 630 m 0
30 634 l 0
334 634 l 0
334 634 l 0
35 34 l 0
334 34 l 0
334 30 l 0
30 30 l 0
30 30 l 0
328 630 l 0
30 630 l 0
Z
Spiro
30 630 v
30 634 v
334 634 v
334 634 v
35 34 v
334 34 v
334 30 v
30 30 v
30 30 v
328 630 v
0 0 z
EndSpiro
EndSplineSet
        Fore
        SplineSet
-1 600 m 0
-1 660 l 0
361 660 l 0
361 660 l 0
79 60 l 0
361 60 l 0
361 0 l 0
-1 0 l 0
-1 0 l 0
280 600 l 0
-1 600 l 0
Z
Spiro
-1 600 v
-1 660 v
361 660 v
361 660 v
79 60 v
361 60 v
361 0 v
-1 0 v
-1 0 v
280 600 v
0 0 z
EndSpiro
EndSplineSet
        EndChar
StartChar: c
Encoding: 99 99 0
Width: 433
InSpiro: 1
        Flags: H
        LayerCount: 2
        Back
        SplineSet
329 132 m 0
329 136 l 0
357 160 377 194 384 231 c 0
391 267 386 306 369 340 c 0
352 373 324 401 291 417 c 0
257 433 218 437 182 430 c 0
138 420 99 393 73 357 c 0
47 321 34 276 34 232 c 0
33 187 47 142 73 106 c 0
99 69 138 42 182 33 c 0
218 25 257 29 291 45 c 0
325 62 353 89 370 123 c 0
387 156 392 195 384 232 c 0
377 269 357 303 329 328 c 0
329 332 l 0
358 307 379 272 386 235 c 0
394 197 389 157 373 123 c 0
356 88 327 60 293 43 c 0
258 26 218 21 181 30 c 0
136 39 96 67 69 103 c 0
43 140 29 186 30 232 c 0
30 277 43 322 70 359 c 0
96 396 136 423 181 433 c 0
218 440 258 436 292 419 c 0
326 402 355 374 372 340 c 0
389 305 394 266 386 228 c 0
378 191 358 156 329 132 c 0
Z
Spiro
329 132 v
329 136 v
182 430 c
34 232 c
182 33 c
329 328 v
329 332 v
181 30 c
30 232 c
181 433 c
0 0 z
EndSpiro
EndSplineSet
        Fore
        SplineSet
361 130 m 0
298 130 l 0
327 148 350 177 361 210 c 0
372 244 370 281 357 313 c 0
343 345 318 372 287 388 c 0
255 404 218 408 185 400 c 0
148 390 115 367 93 336 c 0
72 305 61 267 61 230 c 0
60 192 71 153 93 122 c 0
115 91 148 68 185 59 c 0
219 50 256 54 287 70 c 0
318 86 344 113 357 145 c 0
371 178 372 215 362 249 c 0
351 282 328 311 298 330 c 0
361 330 l 0
389 299 407 259 411 217 c 0
416 176 407 133 387 97 c 0
366 60 334 31 296 13 c 0
258 -3 214 -8 174 0 c 0
122 10 76 41 45 83 c 0
14 125 -1 177 -1 230 c 0
0 282 15 334 45 376 c 0
76 417 123 448 174 459 c 0
214 467 258 462 295 445 c 0
333 427 366 398 386 362 c 0
407 326 416 283 411 241 c 0
406 200 388 160 361 130 c 0
Z
Spiro
361 130 v
298 130 v
185 400 c
61 230 c
185 59 c
298 330 v
361 330 v
174 0 c
-1 230 c
174 459 c
0 0 z
EndSpiro
EndSplineSet
        EndChar
StartChar: e
Encoding: 101 101 0
Width: 433
InSpiro: 1
        Flags: H
        LayerCount: 2
        Back
        SplineSet
31 210 m 0
31 214 l 0
331 214 l 0
350 222 366 235 378 253 c 0
389 270 395 291 395 312 c 0
395 332 389 353 378 370 c 0
366 388 350 401 331 410 c 0
307 420 280 421 254 416 c 0
229 411 205 401 182 390 c 0
146 371 111 348 84 318 c 0
57 288 37 251 34 211 c 0
29 168 44 124 71 92 c 0
99 59 139 38 182 33 c 0
218 28 255 35 287 53 c 0
319 70 345 97 361 130 c 0
377 162 383 200 377 236 c 0
371 272 354 306 329 332 c 0
334 332 l 0
359 305 375 270 380 234 c 0
385 198 379 160 363 127 c 0
346 94 319 67 287 50 c 0
255 32 217 25 181 30 c 0
137 35 96 56 68 90 c 0
40 123 25 168 30 212 c 0
34 252 54 290 81 321 c 0
109 351 144 374 181 393 c 0
204 404 228 414 254 419 c 0
280 424 307 423 332 413 c 0
351 404 369 390 381 372 c 0
393 353 399 332 399 310 c 0
398 288 391 267 379 249 c 0
367 231 349 217 329 210 c 0
334 210 l 0
31 210 l 0
Z
Spiro
31 210 v
31 214 v
331 214 v
331 410 c
182 390 c
34 211 c
182 33 c
329 332 v
334 332 v
181 30 c
30 212 c
181 393 c
332 413 c
329 210 v
334 210 v
0 0 z
EndSpiro
EndSplineSet
        Fore
        SplineSet
28 180 m 0
28 240 l 0
323 240 l 0
335 247 346 257 353 270 c 0
360 283 364 298 363 312 c 0
363 327 358 341 350 354 c 0
342 366 330 376 317 382 c 0
297 390 274 391 253 386 c 0
232 382 213 373 194 363 c 0
162 346 131 326 107 300 c 0
82 274 64 241 61 206 c 0
57 171 69 135 92 108 c 0
114 81 147 64 182 59 c 0
215 53 249 60 278 76 c 0
308 92 331 118 344 149 c 0
357 180 360 215 352 247 c 0
343 280 324 309 298 330 c 0
361 330 l 0
385 298 399 259 402 219 c 0
405 179 396 139 377 104 c 0
357 69 328 40 292 22 c 0
257 3 216 -3 177 0 c 0
125 5 76 30 43 69 c 0
10 108 -6 161 -1 213 c 0
3 258 25 300 55 335 c 0
85 369 124 395 165 416 c 0
192 429 221 441 251 446 c 0
281 450 313 448 342 437 c 0
369 425 392 404 407 377 c 0
421 351 426 320 421 291 c 0
416 261 401 233 379 213 c 0
356 194 327 181 298 180 c 0
361 180 l 0
28 180 l 0
Z
Spiro
28 180 v
28 240 v
323 240 v
317 382 c
194 363 c
61 206 c
182 59 c
298 330 v
361 330 v
177 0 c
-1 213 c
165 416 c
342 437 c
298 180 v
361 180 v
0 0 z
EndSpiro
EndSplineSet
        EndChar
StartChar: g
Encoding: 103 103 0
Width: 433
InSpiro: 1
        Flags: H
        LayerCount: 2
        Back
        SplineSet
329 394 m 0
334 394 l 0
334 32 l 0
333 -28 332 -91 309 -147 c 0
297 -175 281 -201 259 -222 c 0
237 -244 211 -260 182 -269 c 0
143 -280 101 -277 64 -261 c 0
28 -245 -2 -215 -19 -179 c 0
-37 -144 -41 -101 -32 -63 c 0
-22 -24 1 10 34 34 c 0
34 30 l 0
2 6 -20 -27 -30 -65 c 0
-39 -103 -35 -145 -17 -180 c 0
0 -215 29 -243 65 -259 c 0
101 -274 143 -277 181 -266 c 0
209 -257 235 -241 256 -219 c 0
277 -198 293 -172 305 -145 c 0
327 -89 329 -28 329 31 c 0
329 394 l 0
Z
329 90 m 0
329 94 l 0
355 119 374 153 380 189 c 0
387 225 381 263 365 296 c 0
348 329 321 356 289 373 c 0
256 390 218 396 182 390 c 0
140 383 101 360 75 327 c 0
48 295 33 253 34 211 c 0
34 169 48 127 75 94 c 0
102 62 140 40 182 33 c 0
218 26 256 32 289 49 c 0
322 66 349 93 365 126 c 0
382 159 387 198 381 234 c 0
374 270 355 304 329 330 c 0
329 334 l 0
356 308 376 273 383 236 c 0
390 199 385 160 368 126 c 0
352 92 324 64 290 47 c 0
257 29 218 23 181 30 c 0
138 37 99 60 72 93 c 0
44 126 29 169 30 212 c 0
30 254 45 297 72 330 c 0
99 363 138 386 181 393 c 0
218 399 257 393 290 375 c 0
323 358 351 330 367 296 c 0
384 262 389 223 382 186 c 0
375 149 356 115 329 90 c 0
Z
Spiro
329 394 v
334 394 v
334 32 ]
182 -269 c
34 34 v
34 30 v
181 -266 c
329 31 [
329 90 v
329 94 v
182 390 c
34 211 c
182 33 c
329 330 v
329 334 v
181 30 c
30 212 c
181 393 c
0 0 z
EndSpiro
EndSplineSet
        Fore
        SplineSet
298 420 m 0
361 420 l 0
361 30 l 0
360 -36 358 -105 332 -167 c 0
319 -197 300 -226 275 -249 c 0
251 -272 221 -289 189 -298 c 0
143 -310 93 -304 51 -282 c 0
9 -260 -23 -222 -39 -177 c 0
-55 -133 -54 -82 -35 -39 c 0
-17 4 17 40 61 60 c 0
61 0 l 0
34 -17 14 -44 5 -74 c 0
-3 -104 -1 -138 11 -167 c 0
24 -196 48 -220 77 -233 c 0
105 -247 139 -249 170 -241 c 0
195 -233 219 -218 237 -198 c 0
256 -179 269 -155 278 -130 c 0
297 -79 297 -24 298 29 c 0
298 420 l 0
Z
298 60 m 0
298 120 l 0
320 139 335 166 341 195 c 0
347 224 343 255 331 282 c 0
318 308 297 331 270 345 c 0
244 359 214 364 185 360 c 0
149 354 117 335 95 307 c 0
72 280 60 244 61 209 c 0
61 173 73 138 95 110 c 0
117 83 150 64 185 59 c 0
214 54 245 59 271 73 c 0
297 87 319 110 331 137 c 0
344 164 348 195 342 224 c 0
335 253 320 280 298 300 c 0
298 360 l 0
336 337 367 301 382 259 c 0
398 218 399 170 384 128 c 0
370 86 340 49 302 26 c 0
264 3 218 -6 174 0 c 0
124 7 78 33 47 72 c 0
15 110 -1 160 -1 210 c 0
0 259 16 309 47 347 c 0
79 385 124 412 174 419 c 0
218 425 264 415 302 392 c 0
340 369 369 332 384 290 c 0
398 248 397 201 382 159 c 0
366 118 336 82 298 60 c 0
Z
Spiro
298 420 v
361 420 v
361 30 ]
189 -298 c
61 60 v
61 0 v
170 -241 c
298 29 [
298 60 v
298 120 v
185 360 c
61 209 c
185 59 c
298 300 v
298 360 v
174 0 c
-1 210 c
174 419 c
0 0 z
EndSpiro
EndSplineSet
        EndChar
StartChar: h
Encoding: 104 104 0
Width: 433
InSpiro: 1
        Flags: H
        LayerCount: 2
        Back
        SplineSet
34 30 m 0
30 30 l 0
30 634 l 0
34 634 l 0
34 30 l 0
Z
34 130 m 0
30 130 l 0
6 157 -8 191 -12 227 c 0
-16 262 -10 299 6 331 c 0
22 363 47 390 78 408 c 0
109 426 146 435 182 433 c 0
205 431 229 425 249 414 c 0
270 403 289 387 302 367 c 0
316 348 324 325 329 302 c 0
333 279 334 255 334 232 c 0
334 30 l 0
329 30 l 0
329 232 l 0
329 255 328 278 324 301 c 0
320 323 311 346 298 365 c 0
285 384 267 400 247 411 c 0
226 422 204 428 181 430 c 0
145 432 109 424 78 406 c 0
47 388 22 361 6 329 c 0
-9 297 -15 260 -10 225 c 0
-5 190 10 156 34 130 c 0
Z
Spiro
34 30 v
30 30 v
30 634 v
34 634 v
34 130 v
30 130 v
182 433 c
334 232 [
334 30 v
329 30 v
329 232 ]
181 430 c
0 0 z
EndSpiro
EndSplineSet
        Fore
        SplineSet
61 0 m 0
-1 0 l 0
-1 660 l 0
61 660 l 0
61 0 l 0
Z
61 100 m 0
-1 100 l 0
-27 133 -43 173 -47 215 c 0
-51 257 -43 300 -24 338 c 0
-5 375 24 407 60 428 c 0
97 450 139 460 182 459 c 0
209 457 236 451 261 439 c 0
285 427 307 409 323 386 c 0
339 364 349 338 355 311 c 0
360 284 361 257 361 230 c 0
361 0 l 0
298 0 l 0
298 230 l 0
298 249 297 268 294 287 c 0
290 306 283 325 273 341 c 0
262 357 248 371 231 381 c 0
214 391 196 397 177 400 c 0
140 405 102 397 70 378 c 0
38 360 13 330 0 296 c 0
-13 261 -14 222 -3 187 c 0
7 152 30 120 61 100 c 0
Z
Spiro
61 0 v
-1 0 v
-1 660 v
61 660 v
61 100 v
-1 100 v
182 459 c
361 230 [
361 0 v
298 0 v
298 230 ]
177 400 c
0 0 z
EndSpiro
EndSplineSet
        EndChar
StartChar: i
Encoding: 105 105 0
Width: 133
InSpiro: 1
        Flags: H
        LayerCount: 2
        Back
        SplineSet
30 394 m 0
34 394 l 0
34 30 l 0
30 30 l 0
30 394 l 0
Z
32 505 m 0
33 504 35 505 36 507 c 0
38 508 39 510 39 512 c 0
38 513 38 515 36 516 c 0
35 518 33 518 32 519 c 0
30 519 28 518 27 516 c 0
25 515 25 513 25 512 c 0
24 510 25 508 27 507 c 0
28 505 30 504 32 505 c 0
Z
Spiro
30 394 v
34 394 v
34 30 v
30 30 v
32 505 c
39 512 c
32 519 c
25 512 c
0 0 z
EndSpiro
EndSplineSet
        Fore
        SplineSet
-1 420 m 0
61 420 l 0
61 0 l 0
-1 0 l 0
-1 420 l 0
Z
30 475 m 0
39 474 48 478 54 485 c 0
61 491 65 500 65 510 c 0
64 519 61 528 54 534 c 0
48 541 39 544 30 545 c 0
20 545 11 541 5 534 c 0
-1 528 -4 519 -5 510 c 0
-5 500 -1 491 5 485 c 0
11 478 20 474 30 475 c 0
Z
Spiro
-1 420 v
61 420 v
61 0 v
-1 0 v
30 475 c
65 510 c
30 545 c
-5 510 c
0 0 z
EndSpiro
EndSplineSet
        EndChar
StartChar: j
Encoding: 106 106 0
Width: 373
InSpiro: 1
        Flags: H
        LayerCount: 2
        Back
        SplineSet
269 434 m 0
274 434 l 0
274 32 l 0
274 -22 274 -77 262 -130 c 0
250 -183 225 -235 183 -269 c 0
142 -300 88 -312 38 -300 c 0
-11 -289 -55 -254 -77 -209 c 0
-100 -163 -100 -107 -79 -60 c 0
-58 -14 -15 21 34 34 c 0
34 30 l 0
-14 17 -56 -17 -76 -62 c 0
-97 -108 -96 -162 -74 -207 c 0
-52 -252 -9 -286 38 -297 c 0
87 -308 140 -296 180 -266 c 0
222 -233 246 -181 257 -129 c 0
269 -76 268 -22 269 31 c 0
269 434 l 0
Z
272 525 m 0
273 525 275 525 276 527 c 0
278 528 278 530 279 532 c 0
279 533 278 535 276 536 c 0
275 538 273 539 272 539 c 0
270 538 268 538 267 536 c 0
265 535 265 533 265 532 c 0
264 530 265 528 267 527 c 0
268 525 270 524 272 525 c 0
Z
Spiro
269 434 v
274 434 v
274 32 ]
183 -269 c
34 34 v
34 30 v
180 -266 c
269 31 [
272 525 c
279 532 c
272 539 c
265 532 c
0 0 z
EndSpiro
EndSplineSet
        Fore
        SplineSet
238 460 m 0
301 460 l 0
301 30 l 0
301 -28 300 -87 287 -144 c 0
273 -201 245 -257 199 -293 c 0
150 -330 84 -343 25 -327 c 0
-33 -311 -83 -265 -106 -208 c 0
-128 -151 -122 -84 -89 -32 c 0
-57 19 0 54 61 60 c 0
61 0 l 0
19 -5 -19 -30 -40 -66 c 0
-61 -102 -65 -148 -49 -187 c 0
-33 -226 0 -256 40 -268 c 0
81 -279 126 -271 160 -246 c 0
179 -231 195 -211 206 -189 c 0
217 -167 225 -143 229 -118 c 0
238 -70 237 -20 238 29 c 0
238 460 l 0
Z
270 495 m 0
279 495 288 498 294 505 c 0
301 511 304 520 305 530 c 0
305 539 301 548 294 554 c 0
288 561 279 565 270 565 c 0
260 564 251 561 245 554 c 0
238 548 235 539 235 530 c 0
234 520 238 511 245 505 c 0
251 498 260 494 270 495 c 0
Z
Spiro
238 460 v
301 460 v
301 30 ]
199 -293 c
61 60 v
61 0 v
160 -246 c
238 29 [
270 495 c
305 530 c
270 565 c
235 530 c
0 0 z
EndSpiro
EndSplineSet
        EndChar
StartChar: k
Encoding: 107 107 0
Width: 373
InSpiro: 1
        Flags: H
        LayerCount: 2
        Back
        SplineSet
30 634 m 0
34 634 l 0
34 30 l 0
30 30 l 0
30 634 l 0
Z
274 434 m 0
274 430 l 0
35 232 l 0
274 34 l 0
274 30 l 0
30 230 l 0
30 234 l 0
274 434 l 0
Z
Spiro
30 634 v
34 634 v
34 30 v
30 30 v
274 434 v
274 430 v
35 232 v
274 34 v
274 30 v
30 230 v
30 234 v
0 0 z
EndSpiro
EndSplineSet
        Fore
        SplineSet
-1 660 m 0
61 660 l 0
61 0 l 0
-1 0 l 0
-1 660 l 0
Z
301 460 m 0
301 400 l 0
78 230 l 0
301 60 l 0
301 0 l 0
-1 200 l 0
-1 260 l 0
301 460 l 0
Z
Spiro
-1 660 v
61 660 v
61 0 v
-1 0 v
301 460 v
301 400 v
78 230 v
301 60 v
301 0 v
-1 200 v
-1 260 v
0 0 z
EndSpiro
EndSplineSet
        EndChar
StartChar: m
Encoding: 109 109 0
Width: 613
InSpiro: 1
        Flags: H
        LayerCount: 2
        Back
        SplineSet
30 434 m 0
34 434 l 0
34 30 l 0
30 30 l 0
30 434 l 0
Z
34 30 m 0
30 30 l 0
30 134 l 0
30 130 l 0
-11 148 -45 185 -60 228 c 0
-75 271 -72 320 -51 361 c 0
-31 402 6 434 50 447 c 0
94 460 143 455 183 433 c 0
216 413 243 382 257 346 c 0
272 310 274 270 274 232 c 0
274 30 l 0
269 30 l 0
269 232 l 0
269 270 267 309 253 344 c 0
239 380 213 411 180 430 c 0
140 452 91 457 48 444 c 0
4 430 -32 399 -52 358 c 0
-72 317 -74 268 -58 225 c 0
-42 183 -7 148 34 131 c 0
34 30 l 0
Z
274 30 m 0
269 30 l 0
269 82 l 0
269 154 263 228 277 300 c 0
284 335 298 371 323 397 c 0
335 411 351 422 368 428 c 0
385 435 404 436 422 433 c 0
441 428 459 417 472 402 c 0
485 387 495 369 501 350 c 0
514 312 513 271 514 232 c 0
514 30 l 0
509 30 l 0
509 232 l 0
509 271 509 310 497 348 c 0
491 366 482 384 470 399 c 0
457 414 440 425 421 430 c 0
403 434 384 432 368 425 c 0
351 419 336 408 324 394 c 0
300 368 287 333 280 297 c 0
267 226 274 154 274 82 c 0
274 30 l 0
Z
Spiro
30 434 v
34 434 v
34 30 v
30 30 v
34 30 v
30 30 v
30 134 v
30 130 v
183 433 c
274 232 [
274 30 v
269 30 v
269 232 ]
180 430 c
34 131 v
274 30 v
269 30 v
269 82 ]
422 433 c
514 232 [
514 30 v
509 30 v
509 232 ]
421 430 c
274 82 [
0 0 z
EndSpiro
EndSplineSet
        Fore
        SplineSet
-1 460 m 0
61 460 l 0
61 0 l 0
-1 0 l 0
-1 460 l 0
Z
61 0 m 0
-1 0 l 0
-1 160 l 0
-1 100 l 0
-47 125 -83 170 -97 221 c 0
-112 272 -106 329 -80 375 c 0
-55 422 -10 458 40 472 c 0
91 487 148 481 195 456 c 0
233 434 264 400 281 359 c 0
298 319 301 274 301 230 c 0
301 0 l 0
238 0 l 0
238 230 l 0
238 262 236 296 225 327 c 0
213 358 191 385 164 403 c 0
125 427 75 433 32 418 c 0
-10 404 -46 369 -62 326 c 0
-77 283 -73 233 -49 194 c 0
-26 155 15 128 61 122 c 0
61 0 l 0
Z
301 0 m 0
238 0 l 0
238 80 l 0
238 160 233 242 256 320 c 0
267 359 286 396 315 423 c 0
330 437 348 448 367 454 c 0
386 461 407 462 427 459 c 0
449 454 470 442 487 426 c 0
503 409 515 389 524 367 c 0
540 324 540 276 541 230 c 0
541 0 l 0
478 0 l 0
478 230 l 0
478 262 478 295 471 327 c 0
467 343 460 358 451 371 c 0
441 384 427 395 412 400 c 0
396 404 379 402 364 396 c 0
349 389 336 378 327 365 c 0
307 339 300 306 297 274 c 0
293 209 301 144 301 80 c 0
301 0 l 0
Z
Spiro
-1 460 v
61 460 v
61 0 v
-1 0 v
61 0 v
-1 0 v
-1 160 v
-1 100 v
195 456 c
301 230 [
301 0 v
238 0 v
238 230 ]
164 403 c
61 122 v
301 0 v
238 0 v
238 80 ]
427 459 c
541 230 [
541 0 v
478 0 v
478 230 ]
412 400 c
301 80 [
0 0 z
EndSpiro
EndSplineSet
        EndChar
StartChar: n
Encoding: 110 110 0
Width: 373
InSpiro: 1
        Flags: H
        LayerCount: 2
        Back
        SplineSet
30 434 m 0
34 434 l 0
34 30 l 0
30 30 l 0
30 434 l 0
Z
34 30 m 0
30 30 l 0
30 134 l 0
30 130 l 0
-11 148 -45 185 -60 228 c 0
-75 271 -72 320 -51 361 c 0
-31 402 6 434 50 447 c 0
94 460 143 455 183 433 c 0
216 413 243 382 257 346 c 0
272 310 274 270 274 232 c 0
274 30 l 0
269 30 l 0
269 232 l 0
269 270 267 309 253 344 c 0
239 380 213 411 180 430 c 0
140 452 91 457 48 444 c 0
4 430 -32 399 -52 358 c 0
-72 317 -74 268 -58 225 c 0
-42 183 -7 148 34 131 c 0
34 30 l 0
Z
Spiro
30 434 v
34 434 v
34 30 v
30 30 v
34 30 v
30 30 v
30 134 v
30 130 v
183 433 c
274 232 [
274 30 v
269 30 v
269 232 ]
180 430 c
34 131 v
0 0 z
EndSpiro
EndSplineSet
        Fore
        SplineSet
-1 460 m 0
61 460 l 0
61 0 l 0
-1 0 l 0
-1 460 l 0
Z
61 0 m 0
-1 0 l 0
-1 160 l 0
-1 100 l 0
-47 125 -83 170 -97 221 c 0
-112 272 -106 329 -80 375 c 0
-55 422 -10 458 40 472 c 0
91 487 148 481 195 456 c 0
233 434 264 400 281 359 c 0
298 319 301 274 301 230 c 0
301 0 l 0
238 0 l 0
238 230 l 0
238 262 236 296 225 327 c 0
213 358 191 385 164 403 c 0
125 427 75 433 32 418 c 0
-10 404 -46 369 -62 326 c 0
-77 283 -73 233 -49 194 c 0
-26 155 15 128 61 122 c 0
61 0 l 0
Z
Spiro
-1 460 v
61 460 v
61 0 v
-1 0 v
61 0 v
-1 0 v
-1 160 v
-1 100 v
195 456 c
301 230 [
301 0 v
238 0 v
238 230 ]
164 403 c
61 122 v
0 0 z
EndSpiro
EndSplineSet
        EndChar
StartChar: p
Encoding: 112 112 0
Width: 433
InSpiro: 1
        Flags: H
        LayerCount: 2
        Back
        SplineSet
30 434 m 0
34 434 l 0
34 -270 l 0
30 -270 l 0
30 434 l 0
Z
34 134 m 0
34 130 l 0
4 154 -16 189 -23 227 c 0
-31 264 -26 304 -10 339 c 0
6 373 35 402 69 419 c 0
104 435 144 440 182 433 c 0
226 423 266 396 293 359 c 0
320 323 333 277 334 232 c 0
334 186 320 140 293 103 c 0
266 66 226 39 182 30 c 0
144 22 104 27 69 43 c 0
34 60 6 89 -10 124 c 0
-27 158 -32 199 -24 236 c 0
-16 274 4 309 34 334 c 0
34 330 l 0
5 305 -15 271 -22 234 c 0
-30 197 -25 157 -8 124 c 0
8 90 36 62 70 45 c 0
104 29 144 24 181 33 c 0
224 42 263 69 289 106 c 0
315 142 329 187 329 232 c 0
328 276 315 321 289 357 c 0
263 393 224 420 181 430 c 0
144 438 104 433 70 417 c 0
37 400 8 373 -7 339 c 0
-24 305 -29 266 -22 229 c 0
-14 192 5 158 34 134 c 0
Z
Spiro
30 434 v
34 434 v
34 -270 v
30 -270 v
34 134 v
34 130 v
182 433 c
334 232 c
182 30 c
34 334 v
34 330 v
181 33 c
329 232 c
181 430 c
0 0 z
EndSpiro
EndSplineSet
        Fore
        SplineSet
-1 460 m 0
61 460 l 0
61 -300 l 0
-1 -300 l 0
-1 460 l 0
Z
61 160 m 0
61 100 l 0
20 121 -11 157 -28 199 c 0
-44 241 -45 290 -30 333 c 0
-15 376 14 413 54 436 c 0
93 459 141 467 186 459 c 0
237 449 283 418 314 376 c 0
345 334 360 282 361 230 c 0
361 177 345 125 314 82 c 0
283 40 237 9 186 0 c 0
141 -8 93 0 53 22 c 0
14 45 -16 83 -31 126 c 0
-46 169 -45 217 -28 260 c 0
-11 302 20 338 61 360 c 0
61 300 l 0
37 281 19 254 12 224 c 0
5 194 9 162 21 135 c 0
34 107 57 84 84 70 c 0
111 57 143 52 173 59 c 0
210 66 243 90 265 121 c 0
287 153 298 191 298 230 c 0
297 268 287 306 265 337 c 0
243 368 210 392 173 400 c 0
143 405 111 401 84 388 c 0
57 374 35 351 22 324 c 0
9 296 6 264 13 235 c 0
20 205 37 178 61 160 c 0
Z
Spiro
-1 460 v
61 460 v
61 -300 v
-1 -300 v
61 160 v
61 100 v
186 459 c
361 230 c
186 0 c
61 360 v
61 300 v
173 59 c
298 230 c
173 400 c
0 0 z
EndSpiro
EndSplineSet
        EndChar
StartChar: r
Encoding: 114 114 0
Width: 373
InSpiro: 1
        Flags: H
        LayerCount: 2
        Back
        SplineSet
34 30 m 0
30 30 l 0
30 394 l 0
34 394 l 0
34 30 l 0
Z
34 340 m 0
30 340 l 0
68 380 126 401 182 393 c 0
214 388 245 373 270 351 c 0
295 330 313 301 322 269 c 0
332 237 331 203 322 171 c 0
312 140 294 111 269 90 c 0
269 94 l 0
293 115 311 143 319 174 c 0
328 205 328 239 319 270 c 0
310 300 292 329 267 350 c 0
243 371 212 385 181 390 c 0
127 397 71 378 34 340 c 0
Z
Spiro
34 30 v
30 30 v
30 394 v
34 394 v
34 340 v
30 340 v
182 393 c
269 90 v
269 94 v
181 390 c
0 0 z
EndSpiro
EndSplineSet
        Fore
        SplineSet
61 0 m 0
-1 0 l 0
-1 420 l 0
61 420 l 0
61 0 l 0
Z
61 310 m 0
-1 310 l 0
14 344 41 374 74 393 c 0
107 413 145 422 184 419 c 0
225 415 265 397 296 369 c 0
326 340 347 302 353 260 c 0
359 219 351 176 330 140 c 0
309 104 276 75 238 60 c 0
238 120 l 0
260 135 277 157 287 182 c 0
297 207 298 236 291 262 c 0
284 288 269 312 248 329 c 0
228 347 201 357 175 360 c 0
131 363 87 344 61 310 c 0
Z
Spiro
61 0 v
-1 0 v
-1 420 v
61 420 v
61 310 v
-1 310 v
184 419 c
238 60 v
238 120 v
175 360 c
0 0 z
EndSpiro
EndSplineSet
        EndChar
StartChar: s
Encoding: 115 115 0
Width: 433
InSpiro: 1
        Flags: H
        LayerCount: 2
        Back
        SplineSet
329 132 m 0
329 136 l 0
435 96 555 94 662 130 c 0
770 166 864 240 925 335 c 0
986 431 1014 547 1002 660 c 0
990 773 938 881 858 961 c 0
778 1041 670 1093 557 1105 c 0
444 1117 328 1089 232 1028 c 0
137 967 63 873 27 765 c 0
-8 658 -6 538 33 432 c 0
39 414 46 398 48 380 c 0
49 371 49 361 46 353 c 0
44 344 39 336 33 330 c 0
26 323 17 320 8 319 c 0
0 318 -9 319 -17 323 c 0
-25 327 -32 333 -37 341 c 0
-43 348 -46 357 -47 366 c 0
-50 384 -44 402 -34 417 c 0
-23 431 -7 442 8 448 c 0
25 455 44 456 62 455 c 0
80 454 97 450 114 443 c 0
148 431 179 411 207 388 c 0
222 362 235 334 243 304 c 0
246 289 249 274 249 259 c 0
250 244 248 228 242 214 c 0
236 200 226 187 213 179 c 0
207 175 199 173 191 172 c 0
184 171 176 172 169 175 c 0
162 178 155 183 151 189 c 0
147 196 145 204 146 211 c 0
148 219 152 226 158 230 c 0
162 232 165 234 169 234 c 0
173 234 177 234 181 233 c 0
232 200 282 167 333 133 c 0
345 124 357 115 367 104 c 0
377 93 385 80 386 65 c 0
387 58 386 50 383 43 c 0
381 36 376 30 370 26 c 0
364 21 356 19 349 20 c 0
341 20 334 24 330 30 c 0
236 137 136 238 30 332 c 0
34 332 l 0
-30 301 -77 237 -89 167 c 0
-101 97 -77 22 -26 -27 c 0
23 -78 98 -102 168 -90 c 0
238 -78 302 -31 333 33 c 0
340 48 346 65 346 82 c 0
347 99 342 117 330 130 c 0
322 137 313 142 303 145 c 0
293 148 282 150 272 150 c 0
251 150 230 147 209 150 c 0
198 151 188 154 179 159 c 0
170 165 162 172 157 182 c 0
153 191 152 203 157 213 c 0
159 217 162 222 167 225 c 0
171 228 176 229 182 230 c 0
130 263 79 297 30 333 c 0
19 340 8 348 0 358 c 0
-8 367 -15 379 -17 392 c 0
-18 398 -18 405 -16 411 c 0
-14 418 -10 423 -6 428 c 0
-1 432 5 435 11 436 c 0
18 436 24 434 30 431 c 0
144 347 245 246 329 132 c 0
Z
Spiro
329 132 v
329 136 v
33 432 c
33 330 c
181 233 a
333 133 c
330 30 c
30 332 v
34 332 v
333 33 c
330 130 c
182 230 a
30 333 c
30 431 c
0 0 z
EndSpiro
EndSplineSet
        Fore
        SplineSet
Spiro
298 130 v
298 190 v
59 440 c
51 307 c
179 259 a
348 154 c
310 6 c
-1 330 v
61 330 v
349 53 c
311 105 c
180 200 a
8 352 c
0 419 c
0 0 z
EndSpiro
EndSplineSet
        EndChar
StartChar: t
Encoding: 116 116 0
Width: 283
InSpiro: 1
        Flags: H
        LayerCount: 2
        Back
        SplineSet
30 634 m 0
34 634 l 0
34 212 l 0
34 189 34 166 38 144 c 0
42 121 50 100 64 81 c 0
77 63 96 48 117 40 c 0
138 31 161 29 184 34 c 0
184 30 l 0
161 25 137 27 115 35 c 0
93 44 74 59 61 78 c 0
47 97 38 119 34 142 c 0
30 165 29 188 30 212 c 0
30 634 l 0
Z
30 390 m 0
30 394 l 0
184 394 l 0
184 390 l 0
30 390 l 0
Z
Spiro
30 634 v
34 634 v
34 212 ]
184 34 v
184 30 v
30 212 [
30 390 v
30 394 v
184 394 v
184 390 v
0 0 z
EndSpiro
EndSplineSet
        Fore
        SplineSet
-1 660 m 0
61 660 l 0
61 210 l 0
61 188 61 166 65 145 c 0
70 124 79 103 93 87 c 0
107 70 126 58 147 53 c 0
168 48 191 50 211 60 c 0
211 0 l 0
183 -13 151 -16 121 -9 c 0
91 -2 64 14 44 37 c 0
24 60 12 89 5 118 c 0
0 148 -1 179 -1 210 c 0
-1 660 l 0
Z
-1 360 m 0
-1 420 l 0
211 420 l 0
211 360 l 0
-1 360 l 0
Z
Spiro
-1 660 v
61 660 v
61 210 ]
211 60 v
211 0 v
-1 210 [
-1 360 v
-1 420 v
211 420 v
211 360 v
0 0 z
EndSpiro
EndSplineSet
        EndChar
StartChar: u
Encoding: 117 117 0
Width: 373
InSpiro: 1
        Flags: H
        LayerCount: 2
        Back
        SplineSet
274 30 m 0
269 30 l 0
269 394 l 0
274 394 l 0
274 30 l 0
Z
269 330 m 0
269 334 l 0
297 314 319 285 331 252 c 0
342 220 343 184 334 150 c 0
324 117 304 87 277 65 c 0
250 44 216 31 182 30 c 0
159 28 136 32 115 41 c 0
94 50 76 64 62 82 c 0
48 100 39 122 34 144 c 0
30 166 29 189 30 212 c 0
30 394 l 0
34 394 l 0
34 212 l 0
33 189 34 167 38 146 c 0
43 124 51 103 65 85 c 0
78 68 96 54 116 45 c 0
136 36 158 32 181 33 c 0
214 34 248 46 275 66 c 0
302 87 322 117 332 149 c 0
341 182 341 217 329 250 c 0
318 282 296 310 269 330 c 0
Z
Spiro
274 30 v
269 30 v
269 394 v
274 394 v
269 330 v
269 334 v
182 30 c
30 212 [
30 394 v
34 394 v
34 212 ]
181 33 c
0 0 z
EndSpiro
EndSplineSet
        Fore
        SplineSet
301 0 m 0
238 0 l 0
238 420 l 0
301 420 l 0
301 0 l 0
Z
238 300 m 0
238 360 l 0
275 343 307 314 327 277 c 0
347 241 354 198 348 157 c 0
342 117 321 78 291 50 c 0
261 22 222 4 181 0 c 0
154 -2 126 0 102 10 c 0
77 20 54 36 38 57 c 0
21 78 10 103 4 129 c 0
0 156 -1 183 -1 210 c 0
-1 420 l 0
61 420 l 0
61 210 l 0
60 191 61 173 64 156 c 0
68 138 74 121 85 106 c 0
95 91 109 79 125 71 c 0
141 63 159 59 178 59 c 0
206 58 234 68 257 85 c 0
279 103 296 128 302 155 c 0
309 183 307 213 295 239 c 0
283 265 263 286 238 300 c 0
Z
Spiro
301 0 v
238 0 v
238 420 v
301 420 v
238 300 v
238 360 v
181 0 c
-1 210 [
-1 420 v
61 420 v
61 210 ]
178 59 c
0 0 z
EndSpiro
EndSplineSet
        EndChar
StartChar: v
Encoding: 118 118 0
Width: 433
InSpiro: 1
        Flags: H
        LayerCount: 2
        Back
        SplineSet
30 434 m 0
34 434 l 0
182 37 l 0
329 434 l 0
334 434 l 0
184 30 l 0
179 30 l 0
30 434 l 0
Z
Spiro
30 434 v
34 434 v
182 37 v
329 434 v
334 434 v
184 30 v
179 30 v
0 0 z
EndSpiro
EndSplineSet
        Fore
        SplineSet
-1 460 m 0
61 460 l 0
180 115 l 0
298 460 l 0
361 460 l 0
211 0 l 0
148 0 l 0
-1 460 l 0
Z
Spiro
-1 460 v
61 460 v
180 115 v
298 460 v
361 460 v
211 0 v
148 0 v
0 0 z
EndSpiro
EndSplineSet
        EndChar
StartChar: w
Encoding: 119 119 0
Width: 613
InSpiro: 1
        Flags: H
        LayerCount: 2
        Back
        SplineSet
30 394 m 0
34 394 l 0
152 38 l 0
269 394 l 0
274 394 l 0
392 38 l 0
509 394 l 0
514 394 l 0
394 30 l 0
389 30 l 0
272 385 l 0
154 30 l 0
149 30 l 0
30 394 l 0
Z
Spiro
30 394 v
34 394 v
152 38 v
269 394 v
274 394 v
392 38 v
509 394 v
514 394 v
394 30 v
389 30 v
272 385 v
154 30 v
149 30 v
0 0 z
EndSpiro
EndSplineSet
        Fore
        SplineSet
-1 420 m 0
61 420 l 0
150 124 l 0
238 420 l 0
301 420 l 0
390 124 l 0
478 420 l 0
541 420 l 0
421 0 l 0
358 0 l 0
270 295 l 0
181 0 l 0
118 0 l 0
-1 420 l 0
Z
Spiro
-1 420 v
61 420 v
150 124 v
238 420 v
301 420 v
390 124 v
478 420 v
541 420 v
421 0 v
358 0 v
270 295 v
181 0 v
118 0 v
0 0 z
EndSpiro
EndSplineSet
        EndChar
StartChar: y
Encoding: 121 121 0
Width: 433
InSpiro: 1
        Flags: H
        LayerCount: 2
        Back
        SplineSet
329 434 m 0
334 434 l 0
334 32 l 0
334 -28 332 -91 309 -147 c 0
297 -175 281 -201 259 -222 c 0
237 -244 211 -260 182 -269 c 0
143 -280 101 -277 64 -261 c 0
28 -245 -2 -215 -19 -179 c 0
-37 -144 -41 -101 -32 -63 c 0
-22 -24 1 10 34 34 c 0
34 30 l 0
2 6 -20 -27 -30 -65 c 0
-39 -103 -35 -145 -17 -180 c 0
0 -215 29 -243 65 -259 c 0
101 -274 143 -277 181 -266 c 0
209 -257 235 -241 256 -219 c 0
277 -198 293 -172 305 -145 c 0
327 -89 329 -28 329 31 c 0
329 434 l 0
Z
30 434 m 0
34 434 l 0
34 232 l 0
34 208 34 185 38 162 c 0
42 139 50 116 63 97 c 0
76 77 94 61 114 50 c 0
135 39 158 33 182 34 c 0
205 34 228 39 248 50 c 0
269 62 286 78 299 97 c 0
312 117 320 139 324 162 c 0
328 185 329 208 329 232 c 0
329 434 l 0
334 434 l 0
334 232 l 0
334 208 333 184 329 160 c 0
325 137 316 114 303 94 c 0
290 74 272 58 250 46 c 0
229 35 205 29 182 30 c 0
158 30 134 35 113 46 c 0
91 58 73 74 60 94 c 0
47 114 38 137 34 160 c 0
30 184 29 208 30 232 c 0
30 434 l 0
Z
Spiro
329 434 v
334 434 v
334 32 ]
182 -269 c
34 34 v
34 30 v
181 -266 c
329 31 [
30 434 v
34 434 v
34 232 ]
182 34 c
329 232 [
329 434 v
334 434 v
334 232 ]
182 30 c
30 232 [
0 0 z
EndSpiro
EndSplineSet
        Fore
        SplineSet
298 460 m 0
361 460 l 0
361 30 l 0
361 -36 358 -105 332 -167 c 0
319 -197 300 -226 275 -249 c 0
251 -272 221 -289 189 -298 c 0
143 -310 93 -304 51 -282 c 0
9 -260 -23 -222 -39 -177 c 0
-55 -133 -54 -82 -35 -39 c 0
-17 4 17 40 61 60 c 0
61 0 l 0
34 -17 14 -44 5 -74 c 0
-3 -104 -1 -138 11 -167 c 0
24 -196 48 -220 77 -233 c 0
105 -247 139 -249 170 -241 c 0
195 -233 219 -218 237 -198 c 0
256 -179 269 -155 278 -130 c 0
297 -79 297 -24 298 29 c 0
298 460 l 0
Z
-1 460 m 0
61 460 l 0
61 230 l 0
61 210 61 190 64 171 c 0
67 152 73 133 83 116 c 0
93 99 107 85 124 75 c 0
140 65 160 59 180 60 c 0
199 60 218 65 235 75 c 0
252 85 265 100 275 117 c 0
285 133 291 152 294 171 c 0
297 191 298 210 298 230 c 0
298 460 l 0
361 460 l 0
361 230 l 0
361 202 360 174 355 147 c 0
350 119 339 93 323 71 c 0
307 48 285 30 260 18 c 0
235 5 207 0 180 0 c 0
152 0 124 5 99 18 c 0
74 30 52 48 36 71 c 0
20 93 9 119 4 147 c 0
0 174 -1 202 -1 230 c 0
-1 460 l 0
Z
Spiro
298 460 v
361 460 v
361 30 ]
189 -298 c
61 60 v
61 0 v
170 -241 c
298 29 [
-1 460 v
61 460 v
61 230 ]
180 60 c
298 230 [
298 460 v
361 460 v
361 230 ]
180 0 c
-1 230 [
0 0 z
EndSpiro
EndSplineSet
        EndChar
StartChar: z
Encoding: 122 122 0
Width: 433
InSpiro: 1
        Flags: H
        LayerCount: 2
        Back
        SplineSet
30 430 m 0
30 434 l 0
334 434 l 0
334 434 l 0
36 34 l 0
334 34 l 0
334 30 l 0
30 30 l 0
30 30 l 0
327 430 l 0
30 430 l 0
Z
Spiro
30 430 v
30 434 v
334 434 v
334 434 v
36 34 v
334 34 v
334 30 v
30 30 v
30 30 v
327 430 v
0 0 z
EndSpiro
EndSplineSet
        Fore
        SplineSet
-1 400 m 0
-1 460 l 0
361 460 l 0
361 460 l 0
91 60 l 0
361 60 l 0
361 0 l 0
-1 0 l 0
-1 0 l 0
268 400 l 0
-1 400 l 0
Z
Spiro
-1 400 v
-1 460 v
361 460 v
361 460 v
91 60 v
361 60 v
361 0 v
-1 0 v
-1 0 v
268 400 v
0 0 z
EndSpiro
EndSplineSet
        EndChar
StartChar: £
Encoding: 163 163 0
Width: 433
InSpiro: 1
        Flags: H
        LayerCount: 2
        Back
        SplineSet
329 330 m 0
329 334 l 0
622 154 984 89 1322 156 c 0
1659 223 1969 420 2172 698 c 0
2376 976 2470 1331 2431 1673 c 0
2393 2015 2221 2341 1961 2566 c 0
1701 2791 1355 2915 1011 2904 c 0
667 2894 328 2750 82 2510 c 0
-163 2269 -314 1934 -332 1590 c 0
-350 1247 -235 898 -16 633 c 0
19 589 57 547 80 496 c 0
92 470 100 443 104 415 c 0
108 388 108 360 109 332 c 0
109 30 l 0
104 30 l 0
104 332 l 0
103 359 103 387 99 414 c 0
95 442 87 469 76 494 c 0
53 544 16 587 -19 630 c 0
-227 885 -336 1219 -318 1548 c 0
-299 1877 -154 2198 81 2428 c 0
317 2658 641 2795 971 2805 c 0
1300 2816 1632 2698 1881 2483 c 0
2131 2268 2296 1957 2335 1629 c 0
2373 1302 2285 962 2092 694 c 0
1899 427 1604 235 1281 169 c 0
959 102 612 161 329 330 c 0
Z
30 30 m 0
30 34 l 0
334 34 l 0
334 30 l 0
30 30 l 0
Z
30 330 m 0
30 334 l 0
184 334 l 0
184 330 l 0
30 330 l 0
Z
Spiro
329 330 v
329 334 v
-16 633 c
109 332 [
109 30 v
104 30 v
104 332 ]
-19 630 c
30 30 v
30 34 v
334 34 v
334 30 v
30 330 v
30 334 v
184 334 v
184 330 v
0 0 z
EndSpiro
EndSplineSet
        Fore
        SplineSet
298 300 m 0
298 360 l 0
760 -20 1371 -214 1968 -170 c 0
2565 -125 3141 156 3542 601 c 0
3943 1046 4163 1649 4145 2247 c 0
4127 2846 3870 3433 3443 3853 c 0
3016 4273 2424 4520 1825 4528 c 0
1226 4536 628 4305 190 3897 c 0
-247 3488 -520 2908 -554 2310 c 0
-589 1712 -384 1104 4 649 c 0
42 603 82 558 106 504 c 0
131 450 135 389 136 330 c 0
136 0 l 0
73 0 l 0
73 330 l 0
72 382 68 435 47 483 c 0
25 530 -9 570 -44 610 c 0
-346 962 -509 1432 -488 1897 c 0
-467 2361 -263 2815 69 3139 c 0
402 3464 861 3655 1326 3663 c 0
1791 3671 2256 3497 2601 3184 c 0
2945 2872 3165 2426 3202 1962 c 0
3240 1499 3094 1023 2804 660 c 0
2514 297 2082 50 1622 -16 c 0
1162 -82 678 33 298 300 c 0
Z
-1 0 m 0
-1 60 l 0
361 60 l 0
361 0 l 0
-1 0 l 0
Z
-1 300 m 0
-1 360 l 0
211 360 l 0
211 300 l 0
-1 300 l 0
Z
Spiro
298 300 v
298 360 v
4 649 c
136 330 [
136 0 v
73 0 v
73 330 ]
-44 610 c
-1 0 v
-1 60 v
361 60 v
361 0 v
-1 300 v
-1 360 v
211 360 v
211 300 v
0 0 z
EndSpiro
EndSplineSet
        EndChar
